# xmcd CD database file
#
# Track frame offsets:
#	150
#	13402
#	26927
#	41327
#	53837
#	68700
#	81357
#	95400
#	109280
#	123397
#	135635
#	151140
#	164165
#	177647
#	190960
#	202725
#	214437
#	227847
#	243047
#	257425
#
# Disc length: 3616 seconds
#
# Revision: 0
# Processed by: cddbd v1.4PL0 Copyright (c) Steve Scherf et al.
# Submitted via: CDex 1.50beta10
#
DISCID=1e0e1e14
DTITLE=Various Artist - Charleston
DYEAR=1924
DGENRE=Jazz
TTITLE0=The Charleston
TTITLE1=Headin' For Louisville
TTITLE2=The Blue Room
TTITLE3=Where'd you get those eyes?
TTITLE4=Hard Hearted Hannah
TTITLE5=Five Foot Two, Eyes of Blue
TTITLE6=Fascinating Rhythm
TTITLE7=You're in Kentucky sure as you're born
TTITLE8=Side by side
TTITLE9=Masculine women, Feminine men
TTITLE10=Pasadena
TTITLE11=Dinah
TTITLE12=Turkish Towel - Charleston
TTITLE13=San Francisco
TTITLE14=Crazy Words, Crazy Tune
TTITLE15=She Don't Wanna
TTITLE16=Baby Face
TTITLE17=I love my chili bom-bom
TTITLE18=Someone to watch over me
TTITLE19=The Whisper Song
EXTD=YEAR: 1924
EXTT0=
EXTT1=
EXTT2=
EXTT3=
EXTT4=
EXTT5=
EXTT6=
EXTT7=
EXTT8=
EXTT9=
EXTT10=
EXTT11=
EXTT12=
EXTT13=
EXTT14=
EXTT15=
EXTT16=
EXTT17=
EXTT18=
EXTT19=
PLAYORDER=
